<?xml version="1.0" encoding="utf-8"?>
<!-- Generator: Adobe Illustrator 17.1.0, SVG Export Plug-In . SVG Version: 6.00 Build 0)  -->
<!DOCTYPE svg PUBLIC "-//W3C//DTD SVG 1.1//EN" "http://www.w3.org/Graphics/SVG/1.1/DTD/svg11.dtd">
<svg version="1.1" id="Layer_1" xmlns="http://www.w3.org/2000/svg" xmlns:xlink="http://www.w3.org/1999/xlink" x="0px" y="0px"
	 viewBox="384.8 363.1 268.4 268.4" enable-background="new 384.8 363.1 268.4 268.4" xml:space="preserve">
<g>
	<g>
		<path fill="#FFFFFF" d="M603.6,453.3l30.5-30.6L593.5,382L563,412.6c-4.9-2.5-9.9-4.6-15.2-6.3v-43.2h-57.5v43.2
			c-5.3,1.7-10.4,3.8-15.2,6.3L444.4,382l-40.6,40.6l30.6,30.6c-2.6,4.9-4.6,9.9-6.3,15.2h-43.2V526H428c1.7,5.3,3.8,10.4,6.3,15.2
			l-30.6,30.6l40.7,40.7l30.5-30.6c4.9,2.5,9.9,4.6,15.2,6.3v43.2h57.5v-43.2c5.3-1.7,10.4-3.8,15.2-6.3l30.6,30.6l40.7-40.7
			l-30.6-30.5c2.5-4.9,4.6-9.9,6.3-15.2h43.2v-57.5h-43.2C608.3,463.2,606.2,458.1,603.6,453.3z M519,554.8
			c-31.8,0-57.5-25.7-57.5-57.5c0-31.8,25.7-57.5,57.5-57.5c31.8,0,57.5,25.7,57.5,57.5C576.5,529,550.8,554.8,519,554.8z"/>
	</g>
</g>
</svg>
