<?xml version="1.0" encoding="utf-8"?>
<!-- Generator: Adobe Illustrator 17.1.0, SVG Export Plug-In . SVG Version: 6.00 Build 0)  -->
<!DOCTYPE svg PUBLIC "-//W3C//DTD SVG 1.1//EN" "http://www.w3.org/Graphics/SVG/1.1/DTD/svg11.dtd">
<svg version="1.1" id="Layer_1" xmlns="http://www.w3.org/2000/svg" xmlns:xlink="http://www.w3.org/1999/xlink" x="0px" y="0px"
	 viewBox="269.9 128 114.1 114.1" enable-background="new 269.9 128 114.1 114.1" xml:space="preserve">
<g>
	<g>
		<path fill="#FFFFFF" d="M384,197.3v-24.5h-18.4c-0.7-2.3-1.6-4.4-2.7-6.5l13-13l-17.3-17.3l-13,13c-2-1.1-4.2-2-6.5-2.7V128h-24.4
			v18.4c-2.2,0.7-4.4,1.6-6.5,2.7l-13-13l-17.3,17.3l13,13c-1.1,2.1-2,4.2-2.7,6.5h-18.4v24.5h18.4c0.7,2.3,1.6,4.4,2.7,6.5l-13,13
			l17.3,17.3l13-13c2.1,1.1,4.2,2,6.5,2.7v18.4h24.4v-18.4c2.2-0.7,4.4-1.6,6.5-2.7l13,13l17.3-17.3l-13-13c1.1-2.1,2-4.2,2.7-6.5
			L384,197.3L384,197.3z M326.9,209.5c-13.5,0-24.5-10.9-24.5-24.4c0-13.5,11-24.5,24.5-24.5c13.5,0,24.5,10.9,24.5,24.5
			C351.4,198.6,340.5,209.5,326.9,209.5z"/>
	</g>
</g>
</svg>
